<svg width="32" height="32" xmlns="http://www.w3.org/2000/svg" xmlns:xlink="http://www.w3.org/1999/xlink" xml:space="preserve" overflow="hidden"><g transform="translate(-32 -120)"><path d="M57 143 46 143C45.4477 143 45 143.448 45 144 45 144.552 45.4477 145 46 145L57 145C57.5523 145 58 144.552 58 144 58 143.448 57.5523 143 57 143ZM57 135 46 135C45.4477 135 45 135.448 45 136 45 136.552 45.4477 137 46 137L57 137C57.5523 137 58 136.552 58 136 58 135.448 57.5523 135 57 135ZM57 127 46 127C45.4477 127 45 127.448 45 128 45 128.552 45.4477 129 46 129L57 129C57.5523 129 58 128.552 58 128 58 127.448 57.5523 127 57 127ZM41.5 143 39.5 143C38.9477 143 38.5 143.448 38.5 144 38.5 144.552 38.9477 145 39.5 145L41.5 145C42.0523 145 42.5 144.552 42.5 144 42.5 143.448 42.0523 143 41.5 143ZM41.5 135 39.5 135C38.9477 135 38.5 135.448 38.5 136 38.5 136.552 38.9477 137 39.5 137L41.5 137C42.0523 137 42.5 136.552 42.5 136 42.5 135.448 42.0523 135 41.5 135ZM41.5 127 39.5 127C38.9477 127 38.5 127.448 38.5 128 38.5 128.552 38.9477 129 39.5 129L41.5 129C42.0523 129 42.5 128.552 42.5 128 42.5 127.448 42.0523 127 41.5 127Z" fill="#00FEFE"/><path d="M59 123 37 123C35.3432 123 34 124.343 34 126L34 146C34 147.657 35.3432 149 37 149L59 149C60.6568 149 62 147.657 62 146L62 126C62 124.343 60.6568 123 59 123ZM60 146C60 146.552 59.5523 147 59 147L37 147C36.4477 147 36 146.552 36 146L36 141 57 141C57.5523 141 58 140.552 58 140 58 139.448 57.5523 139 57 139L36 139 36 133 57 133C57.5523 133 58 132.552 58 132 58 131.448 57.5523 131 57 131L36 131 36 126C36 125.448 36.4477 125 37 125L59 125C59.5523 125 60 125.448 60 126L60 146Z" fill="#00FEFE"/></g></svg>