<svg width="38" height="38" xmlns="http://www.w3.org/2000/svg" xmlns:xlink="http://www.w3.org/1999/xlink" xml:space="preserve" overflow="hidden"><g transform="translate(-26 -459)"><path d="M45 466.359C45.4587 466.359 45.8309 465.987 45.8309 465.528L45.8309 462.205C45.8309 461.746 45.459 461.374 45 461.374 44.5413 461.374 44.1691 461.746 44.1691 462.205L44.1691 465.528C44.1691 465.987 44.5413 466.359 45 466.359ZM34.3003 470.127C34.4624 470.289 34.6751 470.371 34.8877 470.371 35.1003 470.371 35.313 470.289 35.4751 470.127 35.7998 469.803 35.7998 469.277 35.4751 468.952L33.125 466.602C32.8003 466.278 32.2748 466.278 31.9501 466.602 31.6254 466.927 31.6254 467.452 31.9501 467.777L34.3003 470.127ZM55.1127 470.371C55.3253 470.371 55.5379 470.289 55.7001 470.127L58.0499 467.777C58.3746 467.452 58.3746 466.927 58.0499 466.602 57.7252 466.278 57.1997 466.278 56.875 466.602L54.5252 468.952C54.2005 469.277 54.2005 469.803 54.5252 470.127 54.6809 470.283 54.8923 470.371 55.1127 470.371ZM57.4624 492.945 55.6441 492.945 55.6441 478.748C55.6441 472.833 50.8317 468.02 44.9165 468.02 39.0013 468.02 34.1893 472.833 34.1893 478.748L34.1893 492.945 32.5372 492.945C32.0785 492.945 31.7063 493.317 31.7063 493.776 31.7063 494.236 32.0781 494.607 32.5372 494.607L57.4624 494.607C57.9219 494.607 58.2933 494.236 58.2933 493.776 58.2933 493.317 57.9219 492.945 57.4624 492.945ZM35.8511 492.945 35.8511 478.748C35.8511 473.749 39.9179 469.682 44.9169 469.682 49.9162 469.682 53.9827 473.749 53.9827 478.748L53.9827 492.945 35.8511 492.945Z" fill="#00FEFE"/><path d="M45 476.329C43.3598 476.329 40.846 480.339 40.846 483.807 40.846 486.097 42.7096 487.961 45 487.961 47.2904 487.961 49.154 486.097 49.154 483.807 49.154 480.29 46.4443 476.329 45 476.329ZM45 486.299C43.6255 486.299 42.5074 485.181 42.5074 483.806 42.5074 481.149 44.2385 478.557 44.9699 478.049 45.6646 478.592 47.4926 481.13 47.4926 483.806 47.4926 485.181 46.3745 486.299 45 486.299Z" fill="#00FEFE"/></g></svg>